<svg xmlns="http://www.w3.org/2000/svg" width="231px" height="240px" viewBox="0 0 2310 2400" preserveAspectRatio="xMidYMid meet"><g fill="#0c0700"><path d="M1063 2286 c-23-7-68-28-100-46-261-147-491-469-554-775-24-113-25-296-4-380 34-131 114-239 217-291 29-14 54-28 56-29 7-6-174-185-198-195-39-16-44-37-15-56 19-13 46-15 130-12 58 1 105-1 105-6 0-4-32-55-70-112-39-58-70-109-70-114 0-22 44-32 111-26 99 10 192 46 257 101 l31 26 5-23 c3-13 8-41 11-63 16-95 111-235 161-235 57 0 151 141 175 263 l12 58 31-29 c74-69 184-112 288-112 51 0 70 4 74 15 4 8-13 45-38 82-24 38-56 89-71 115 l-27 46 94-5 c118-7 166 1 166 28 0 12-13 28-32 39-18 11-70 59-115 109 l-82 89 57 28 c63 31 135 98 177 164 102 162 106 438 10 694-98 261-312 518-520 624-60 30-82 36-150 39-49 2-96-2-122-11z"/></g><g fill="#244901"><path d="M721 719 c-20-15-67-59-105-99 l-69-73 63 7 c96 11 130 29 199 106 66 75 66 76-8 82-35 3-51-1-80-23z"/><path d="M998 727 c-59-19-121-69-176-143-63-85-184-285-177-292 8-8 127 24 177 48 90 42 124 82 192 224 84 174 85 176 49 175-15 0-45-6-65-12z"/><path d="M1204 714 c15-59 124-272 161-312 44-50 158-108 230-118 l49-7-15 24 c-9 13-51 84-94 158-112 191-183 258-294 276 l-44 7 7-28z"/><path d="M1464 669 c31-33 56-64 56-68 0-21 137-71 196-71 19 0-86 125-142 168-36 28-48 32-104 32 l-62 0 56-61z"/><path d="M1077 562 c-72-138-76-158-56-254 20-95 91-207 122-195 26 10 85 98 101 152 8 28 17 78 19 112 5 60 3 67-57 189 l-61 126-68-130z"/></g><g fill="#307100"><path d="M965 706 c-76-35-148-118-247-286-24-41-52-87-61-101 l-17-26 57 9 c81 13 172 59 223 114 26 28 63 90 96 161 30 63 54 117 54 120 0 3-25 3-56 0-65-7-64 1 3 19 31 8 39 13 23 13-14 1-47-10-75-23z"/><path d="M1219 683 c37-93 84-188 116-239 51-79 154-141 263-158 l42-6-34 52 c-18 29-60 98-92 153-91 159-194 245-291 245 l-23 0 19-47z"/><path d="M631 630 l-63-70 39 0 c51 0 101 15 138 41 17 12 22 18 12 15-66-22-70-21-65 13 2 17 1 31-4 31-5 0-4 9 2 20 18 33 6 23-59-50z"/><path d="M1061 522 c-42-86-44-92-39-164 5-82 35-160 83-216 l28-33 33 32 c48 46 86 140 92 224 4 61 1 77-23 128-15 32-31 54-35 50-4-4-16-53-26-108-20-113-16-120-52 78 l-18 97-43-88z"/><path d="M1526 599 c8-13 83-48 103-49 21 0 11 7-53 35-31 14-54 20-50 14z"/></g><g fill="#b00e00"><path d="M1057 2229 c-128-51-311-211-415-361-125-182-191-369-199-568-8-201 29-314 134-410 96-88 116-92 508-102 391-11 472-5 562 41 110 55 187 163 214 300 18 96 7 285-25 396-34 119-121 290-200 396-111 147-263 275-373 315-55 19-149 16-206-7z"/></g><g fill="#e22004"><path d="M1035 2178 c-27-5-58-10-67-12-57-8-223-163-321-301-69-97-141-252-173-370-35-134-38-324-5-425 36-116 106-197 206-241 60-27 213-39 495-39 194 0 235 3 293 20 127 36 181 80 231 190 38 83 49 169 28 221-15 38-15 45 1 88 15 43 15 55 2 127-35 192-92 326-207 479-110 148-219 237-182 150 17-43 18-56 1-80-42-56-125 54-91 120 18 35 14 40-44 58-66 21-109 25-167 15z m56-72 c7-14 9-36 5-49-9-36-54-87-77-87-46 0-48 91-4 136 31 31 62 31 76 0z m-183-239 c30-63-42-159-86-115-27 27-7 113 32 140 19 14 40 4 54-25z m293 2 c24-45-9-139-48-139-23 0-43 61-34 102 5 20 11 41 15 47 12 19 54 13 67-10z m280 2 c20-16 23-28 24-77 0-57-1-59-27-62-48-6-86 85-58 139 13 24 31 24 61 0z m-763-243 c15-15 16-79 0-112-13-30-43-42-62-27-31 26-25 94 11 133 19 21 34 23 51 6z m313-19 c16-30 5-98-20-122-20-20-21-20-41-2-22 20-28 91-10 126 14 26 56 25 71-2z m319 1 c38-38 17-140-29-140-28 0-41 21-41 70 0 44 21 90 41 90 5 0 18-9 29-20z m309-16 c25-32 29-105 6-124-21-18-51-3-69 34-40 85 11 156 63 90z m-1079-243 c25-47 1-141-35-141-22 0-45 41-45 80 0 65 55 107 80 61z m288-24 c17-35 9-88-17-111-18-17-20-17-40 3-23 23-29 88-10 122 15 28 51 20 67-14z m316 11 c31-43 11-133-29-133-23 0-45 38-45 80 0 35 24 75 45 75 8 0 21-10 29-22z m326-7 c22-42 5-123-29-136-39-15-66 72-39 130 14 30 53 34 68 6z m-806-240 c28-31 32-92 8-121-18-22-22-23-37-10-26 21-45 73-38 101 13 51 38 62 67 30z m314-4 c19-22 24-65 12-101-12-39-38-48-60-21-17 21-24 89-11 114 13 23 43 28 59 8z m318-12 c21-32 13-91-16-119 l-21-21-20 24 c-29 36-21 109 15 133 18 12 25 9 42-17z m330 3 c22-36-9-131-48-144-46-14-64 64-28 124 20 33 61 44 76 20z"/><path d="M1021 2084 c-23-29-26-84-5-91 24-8 56 32 58 72 1 50-22 58-53 19z"/><path d="M851 1866 c-20-24-31-77-20-97 13-26 42-11 59 30 22 55-7 105-39 67z"/><path d="M1147 1859 c-26-36-20-109 8-109 35 0 54 76 27 110 l-19 23-16-24z"/><path d="M1437 1863 c-15-14-6-72 14-97 28-36 54-18 45 32-7 47-41 84-59 65z"/><path d="M671 1606 c-18-22-25-84-12-100 17-20 37-10 51 24 24 57-6 116-39 76z"/><path d="M975 1604 c-20-20-20-88 1-104 28-24 51 18 46 86-2 28-27 37-47 18z"/><path d="M1300 1591 c-14-28-13-74 4-96 11-16 16-17 29-6 22 17 30 62 18 94-12 32-36 35-51 8z"/><path d="M1613 1603 c-18-7-16-74 3-101 26-37 44-28 44 22 0 46-25 88-47 79z"/><path d="M523 1333 c-20-52 4-126 33-102 19 16 28 73 15 98-14 25-39 27-48 4z"/><path d="M812 1338 c-16-16-15-80 2-103 8-11 19-16 30-12 30 12 18 127-14 127-3 0-11-5-18-12z"/><path d="M1130 1314 c-13-33-5-78 16-95 18-14 29-3 41 40 15 59-37 109-57 55z"/><path d="M1456 1318 c-27-38-15-108 19-108 19 0 36 59 27 94-10 38-26 43-46 14z"/><path d="M657 1083 c-14-13-6-72 12-94 25-30 45-15 45 35 0 48-34 83-57 59z"/><path d="M972 1078 c-18-18-14-73 7-99 l18-23 17 26 c17 26 14 69-7 96-12 15-20 15-35 0z"/><path d="M1280 1054 c-13-32-13-51 0-75 17-30 38-22 51 20 19 64-28 116-51 55z"/><path d="M1617 1068 c-23-17-36-68-26-96 7-19 12-21 28-13 27 15 45 74 31 101-13 24-12 23-33 8z"/><path d="M1256 2088 c-8-32 24-92 52-96 18-3 22 1 22 23 0 33-24 81-45 89-23 8-22 9-29-16z"/><path d="M1740 1304 c-14-35-12-67 3-89 13-17 15-17 30 6 27 37 20 109-9 109-8 0-19-12-24-26z"/></g><g fill="#ffad00"><path d="M1042 2103 c-16-6-42-56-42-82 0-57 70-10 73 49 2 33-7 43-31 33z"/><path d="M1260 2067 c0-35 33-81 53-74 17 6 10 67-10 89-26 28-43 22-43-15z"/><path d="M864 1872 c-32-21-48-112-20-112 22 0 46 40 46 77 0 34-9 46-26 35z"/><path d="M1139 1832 c-8-29-8-44 0-60 14-26 39-19 47 13 18 73-25 118-47 47z"/><path d="M1433 1855 c-7-20 4-74 18-92 22-26 39-15 39 25 0 57-41 106-57 67z"/><path d="M678 1603 c-32-37-32-103-1-103 19 0 46 67 39 96-8 29-18 30-38 7z"/><path d="M970 1584 c-12-30-5-80 12-90 19-12 39 29 36 71-4 50-32 61-48 19z"/><path d="M1311 1597 c-19-24-23-71-8-92 22-28 47-4 47 45 0 43-21 68-39 47z"/><path d="M1607 1593 c-21-20 12-118 36-110 19 6 20 66 2 93-16 24-26 29-38 17z"/><path d="M526 1335 c-12-34-7-95 10-102 23-9 35 15 32 67-2 32-8 46-19 48-9 2-19-4-23-13z"/><path d="M810 1324 c-14-36-12-56 7-83 15-23 17-23 30-6 16 22 17 69 3 96-15 26-29 24-40-7z"/><path d="M1136 1324 c-13-33-6-94 10-101 20-8 34 13 34 54 0 40-9 63-25 63-7 0-16-7-19-16z"/><path d="M1461 1321 c-14-25-14-81-1-101 16-23 40 15 40 61 0 46-23 70-39 40z"/><path d="M1741 1294 c-19-69 15-119 37-55 12 33 3 82-15 88-7 3-16-13-22-33z"/><path d="M654 1066 c-7-29 2-60 22-81 21-20 34-10 34 25 0 64-43 107-56 56z"/><path d="M967 1059 c-14-52 21-113 44-78 10 16 12 60 3 83-9 23-41 19-47-5z"/><path d="M1292 1068 c-15-15-16-95 0-104 19-12 39 28 36 70-3 42-16 54-36 34z"/><path d="M1606 1048 c-21-29-21-88-2-88 22 0 46 40 46 77 0 39-21 44-44 11z"/></g></svg>