<svg xmlns="http://www.w3.org/2000/svg" width="581" height="600" viewBox="0 0 5810 6000"><path fill="#1c160a" d="M2580 5700a2439 2439 0 0 1-475-117c-66-24-102-39-217-92-54-24-263-149-317-189-85-63-153-123-256-226a1917 1917 0 0 1-519-911l-26-105c-5-19-17-112-26-207-16-160-16-184-1-350a2259 2259 0 0 1 86-463c58-159 81-217 115-285a2385 2385 0 0 1 186-305c8-13 29-39 45-59l55-66c31-38 205-212 245-245 162-135 332-239 545-333a2144 2144 0 0 1 460-130c8-3 44-8 79-11s66-7 67-9a1592 1592 0 0 0-233-553c-24-32-24-32 4-65 76-92 165-149 235-149 38 0 52 5 77 30 39 40 88 127 116 207 13 35 25 67 28 70 4 3 12-7 18-23l26-64c56-140 186-303 313-396 177-129 316-191 555-247 126-29 484-30 619 0 56 12 93 25 100 35 20 33-43 279-96 373l-27 50c-34 69-121 184-201 266-268 274-589 399-1025 399-165 0-165 0-165 34 0 33 1 33 53 40 28 3 77 6 108 6 157 0 548 90 636 146a2013 2013 0 0 1 291 144 2114 2114 0 0 1 572 516c85 106 280 465 280 514a1586 1586 0 0 1 110 429c45 280 16 665-71 921a2110 2110 0 0 1-899 1117 2501 2501 0 0 1-682 272c-248 53-548 65-788 31z"/><path fill="#4c6c22" d="M3002 1383c-44-4-44-4-37-56 10-75 51-210 81-270 37-72 91-142 171-218 240-231 573-337 972-307 75 5 138 12 140 14 9 8-32 120-75 209a1157 1157 0 0 1-509 508 1423 1423 0 0 1-743 120z"/><path fill="#5f8429" d="M2828 1894c-5-4-8-22-8-40 0-36-5-63-51-273-39-180-84-314-156-460-45-91-53-115-42-122 34-23 50-30 58-24 31 18 124 312 166 520 37 184 57 424 33 399zm285-515c9-5 17-17 17-24 0-8 6-15 13-15 6 0 66-48 132-106 162-143 502-395 627-468 21-11 38-27 38-33 0-7 7-13 15-13s47-20 87-45c73-45 73-45 29-41-25 3-48 11-53 19-4 9-16 13-26 10-11-2-26 3-35 11-8 9-25 16-36 16-12 0-21 5-21 10 0 6-11 10-24 10s-26 7-30 15c-3 8-17 15-31 15-32 0-143 55-164 81-9 11-34 26-56 34s-35 14-30 15c17 1-49 40-68 40-10 0-15 5-12 10 3 6-3 10-14 10-12 0-21 5-21 10 0 6-7 10-15 10s-15 5-15 11c0 16-31 38-54 39-11 0-16 3-13 6 9 9-64 63-85 64-10 0-18 7-18 15s-9 15-20 15-19 4-17 8c3 12-110 102-128 102-9 0-14 4-10 9 5 10-45 51-63 51-29 0-49 72-26 94 14 15 13 16-6 16-21 0-21-3-15-52 10-76 51-211 81-271 37-72 91-142 171-218 240-231 573-337 972-307 75 5 138 12 140 14 9 8-32 120-75 209a1159 1159 0 0 1-847 615c-119 21-327 28-294 9z"/><g fill="#e27517"><path d="M2646 5570c-389-45-788-212-1089-458a1942 1942 0 0 1-523-692 1936 1936 0 0 1-84-1299c120-432 442-855 840-1102 237-147 537-252 787-275 71-7 71-7 81 47 6 30 13 74 15 98 6 48 11 47-82 19-42-12-44-12-67 15-30 35-30 49-1 82 50 58 258 100 420 84 94-9 204-41 240-70 33-25 36-70 7-99-23-23-46-25-87-9-15 6-50 17-77 25-49 13-49 13-42-39 3-29 6-77 6-107 0-56 0-56 98-48 383 32 703 144 1002 349 254 175 470 427 614 714 129 259 182 476 192 780 18 541-159 1004-527 1376a2074 2074 0 0 1-1144 595c-106 19-458 27-579 14z"/><path d="M2823 1885c12-23-72-409-119-549-19-56-60-152-91-215-45-91-53-115-42-122 34-23 50-30 58-24 31 18 124 311 166 520 34 168 53 372 35 388-7 7-10 7-7 2z"/></g><g fill="#ef821e"><path d="M2726 5565c7-17 16-19 30-5 5 5 68 11 139 13 130 3 130 3-22 5-132 2-152 0-147-13zm-136-2c-237-39-452-106-645-203-151-75-183-96-171-107 4-5 14 1 22 11 8 11 14 17 14 13s46 16 102 44 124 59 152 69l144 50c50 17 92 36 92 41 0 4 7 6 15 3 22-9 118 16 134 35 10 12 15 13 18 4 7-19 33-16 33 3 0 12 6 15 25 10 14-4 25-2 25 4 0 13 27 13 32 0 5-16 128 0 128 16 0 14-59 17-120 7zm472-5c6-18 88-28 116-15 18 8 25 8 32-3 4-7 15-10 24-7 9 4 16 2 16-4 0-7 12-9 30-7 17 3 30 1 30-3 0-12 106-41 132-37 13 2 28-3 34-11s20-15 30-16c18-2 35-7 79-25l65-25c71-28 270-128 282-142 6-7 15-13 20-13 6 0 32-16 58-35s53-35 59-35 11-3 11-8c0-4 28-28 63-52 34-25 111-93 171-152 98-97 136-125 136-99 0 14-144 158-234 234a2159 2159 0 0 1-606 350c-212 79-561 145-548 105zm-592-225c-105-8-312-44-395-68-183-53-388-149-560-260-146-95-165-95-60 1 36 32 67 66 70 74s-48-39-112-105a1784 1784 0 0 1-449-745 1936 1936 0 0 1 42-1274c145-371 439-723 784-937 237-147 537-252 787-275 71-7 71-7 81 47 6 30 13 74 15 98 6 48 11 47-82 19-42-12-44-12-67 15-30 35-30 49-1 82 50 58 258 100 420 84 94-9 204-41 240-70 33-25 36-70 7-99-23-23-46-25-87-9-15 6-50 17-77 25-49 13-49 13-42-39 3-29 6-77 6-107 0-56 0-56 98-48 135 12 316 43 420 73 98 28 222 74 222 82 0 3-7 3-15-1-34-13-9 13 77 79 139 107 265 223 344 316 239 284 362 572 415 969 85 640-107 1162-590 1604-237 216-632 389-1017 445-131 20-372 31-474 24zm-752-100c-21-14-38-31-37-37 0-7 3-6 6 2 2 6 9 10 14 6 5-3 12 2 15 10 3 9 10 14 15 11 4-3 13 4 19 15 13 25 14 25-32-7zm2732-383c-12-8-12-10 5-11 11 0 14-3 7-6-16-6 3-33 24-33 18 0 17 10-4 37-12 17-21 20-32 13zm51-67c-12-13-12-16 0-24 8-5 21-9 29-10 9 0 11-2 3-5-19-8-3-34 21-34 14 0 17-3 9-8-16-10 11-52 33-52s17 13-33 83c-42 56-50 63-62 50zm110-152c-11-7-10-13 4-35 10-14 25-26 34-26 14 0 14-2 1-10s-13-10 2-10c23 0 34-20 17-31-11-7-9-10 9-15s20-9 10-15-8-9 7-9c17 0 17-2 5-10-13-8-12-10 3-10 20 0 23-16 5-23-7-3-4-6 7-6 15-1 17-3 6-10-17-11-6-31 17-31 15 0 15-2 2-10s-12-10 3-10c18 0 24-16 7-22-17-5 9-68 28-68 12 0 13-3 5-8-17-11-4-52 16-52 12 0 13-2 3-9-18-11-5-61 17-62 10 0 11-2 4-6-19-7-16-33 5-34 10 0 12-3 5-6-19-7-16-33 3-33 14 0 15 7 10 43-12 75-75 249-135 372-68 140-81 158-100 146zm232-597c20-6 23-20 5-26-7-3-5-7 6-11 14-6 17-2 14 15-2 14-11 24-23 25-16 1-16 1-2-3zm7-124c0-13 7-20 19-20 14 0 18 5 14 20-3 11-12 20-19 20-8 0-14-9-14-20zm10-105c0-16 6-25 15-25s15 9 15 25-6 25-15 25-15-9-15-25zm32-157c-1-66-6-98-14-101-10-4-9-8 2-16 13-9 15-2 18 44 2 30 1 81-1 113-2 39-4 26-5-40zm-32-168c0-11 7-20 15-20s15 9 15 20-7 20-15 20-15-9-15-20zm-10-110c0-5 7-10 15-10s15 5 15 10c0 6-7 10-15 10s-15-4-15-10zm8-47c-10-2-18-12-18-21s-3-27-6-39c-5-17-2-23 10-23 9 0 16 3 16 8l9 45c5 20 8 36 7 36l-18-6zm-20-100c-21-5-24-43-4-43 7 0 16 11 18 25l4 24-18-6zm-37-97c-14-56-14-56 3-56 8 0 17 14 21 33l11 50c3 10 0 17-9 17s-19-17-26-44zm-41-128c-13-35-45-109-72-166s-46-107-43-113c4-5 0-9-7-9-17 0-81-106-73-120 3-6-1-10-9-10-14 0-20-12-17-32 0-5-6-8-14-8s-33-27-55-60c-47-69-38-80 15-17 98 112 238 357 299 521 30 80 30 76 12 76-8 0-23-27-36-62z"/><path d="M4360 2345c-36-37-58-65-49-65 14 0 44 28 108 103 47 53 5 26-59-38zm-104-111c-22-19-35-34-30-34 12 1 79 58 73 64-2 2-22-11-43-30zm-341-240c-69-39-67-46 3-9 57 30 80 45 67 44-5 0-37-16-70-35zm-1092-109c12-23-72-409-119-549-19-56-60-152-91-215-45-91-53-115-42-122 34-23 50-30 58-24 31 18 124 311 166 520 34 168 53 372 35 388-7 7-10 7-7 2zm-95-592c-10-2-18-12-18-20 0-9-3-14-6-10-12 11 5 37 23 36 17-1 17-2 1-6zm-23-95c6-4 0-8-12-8-16 0-21 4-16 15 3 9 8 12 12 8l16-15zm-15-36c-8-3-18-10-22-16-10-15-20-2-13 16 4 10 14 14 28 10 15-4 17-7 7-10z"/></g></svg>