<svg xmlns="http://www.w3.org/2000/svg" width="231" height="292" viewBox="0 0 2310 2920"><path fill="#120f00" d="M989 2780c-283-33-511-185-600-399-51-123-63-196-62-391 0-336 57-579 172-730 49-65 138-142 198-170 24-11 43-23 43-26s-7-19-17-37a892 892 0 0 0-265-281c-31-20-59-40-62-45-12-19 8-41 48-52 52-15 176 1 243 31 25 11 48 18 51 16 8-9-82-167-136-237-63-83-66-112-12-117 81-8 216 47 321 130 28 22 52 38 55 36 2-2 10-36 18-74 30-143 115-314 160-322 54-11 138 147 175 326 17 83 17 83 63 45 122-100 299-165 372-137 27 10 18 33-47 119-62 83-143 222-135 231 3 2 25-4 49-15 72-32 159-46 220-35 48 8 54 12 57 35s-6 33-66 73c-39 25-96 74-128 109a714 714 0 0 0-134 194c0 6 26 25 57 43 240 136 347 411 347 895 0 214-14 291-75 415a623 623 0 0 1-279 277c-175 86-402 119-631 93z"/><g fill="#456814"><path d="M772 1005a783 783 0 0 0-241-277c-45-28-45-28-7-28 95 0 210 47 288 118 50 45 138 177 138 206 0 2-26 6-57 10s-66 9-78 12c-17 4-25-4-43-41zm663 32c-38-5-71-11-73-12-11-9 61-126 109-178 83-91 198-147 303-147 39 0 39 0 0 26a868 868 0 0 0-243 282c-12 23-22 41-24 41l-72-12zm-425-30c0-25-100-182-145-227-29-29-63-80-94-145-26-55-69-131-94-168-46-68-46-68-14-62 62 14 176 77 237 133 93 83 198 246 235 361 12 40 35 18 69-66 79-198 237-362 399-417 80-27 82-22 28 57-47 69-121 208-135 254-4 11-18 29-32 38a727 727 0 0 0-145 198c-29 57-29 57-169 57-110 0-140-3-140-13z"/><path d="M1129 744c-13-27-43-79-67-116-42-63-44-70-38-115 17-119 79-289 118-321 12-9 20-1 46 41 39 65 67 146 87 253 16 83 16 83-21 134-20 28-52 79-70 113-32 61-32 61-55 11z"/></g><g fill="#57881b"><path d="M1030 958c-42-9-49-15-85-75-22-35-58-81-80-102-26-24-58-73-91-141-28-58-72-136-97-173-46-68-46-68-14-62 62 14 176 77 237 133 93 83 198 246 235 361 12 40 35 18 69-66a774 774 0 0 1 259-342c56-38 138-76 185-86 31-6 33-6 21 13-7 11-18 18-25 15s-27 9-43 26c-17 17-37 31-45 31-20 0-98 91-92 107 3 7 1 13-5 13s-7 5-4 10c3 6 1 10-5 10s-8 5-5 10c3 6 1 10-5 10s-9 4-6 9-1 12-10 15c-8 3-12 10-9 16 3 5 1 10-5 10s-8 5-5 10c3 6 1 10-5 10s-8 5-5 10c3 6 1 10-5 10s-8 5-5 10c3 6 1 10-5 10s-8 5-5 10c3 6 1 10-5 10s-8 5-5 10c3 6 1 10-5 10s-8 5-5 10c3 6 1 10-5 10s-8 5-5 10c3 6 1 10-5 10s-8 5-5 10c3 6 1 10-5 10s-8 5-5 10c3 6 1 10-6 10s-9 3-6 6c9 10-36 42-80 58-55 19-150 26-203 14zM716 807c-55-27-109-50-120-51-12-1-32-9-46-18l-45-26c-17-10-15-11 20-12 89 0 208 49 285 119 61 55 33 51-94-12zm804-7c60-52 147-88 240-97 55-5 55-5 20 19-19 14-38 20-41 15-8-12-65 6-142 45-32 16-71 33-85 39-25 9-24 7 8-21z"/><path d="M1129 745c-12-27-43-80-67-117-42-63-44-70-38-115 17-120 79-289 119-321 12-11 15-6 15 29 1 23 6 45 12 49 7 4 8 18 4 33-4 18-2 27 6 27s9 10 5 30c-4 19-2 36 5 45 9 10 10 38 5 92-3 43-7 99-7 126-1 26-5 47-9 47-14 0-10 28 4 33 9 3 6 15-9 48-21 44-21 44-45-6z"/></g><path fill="#82b92a" d="M510 715c-25-14-25-14 7-15 25 0 31 4 27 15l-8 15-26-15zm253-108c-18-33-31-63-28-65 2-2 18 24 35 58s30 64 28 65c-2 2-18-24-35-58zm273-20c-14-21-17-38-12-74 18-123 67-257 115-313 22-25 22-25 15 0-13 48-24 70-33 70-6 0-8 7-5 15 4 8 1 15-5 15s-8 6-5 14 0 34-7 57c-6 24-19 89-29 144-17 99-17 99-34 72zm344-22c0-8 44-46 90-78 26-17 38-22 28-11-9 10-17 24-17 29 0 6-10 13-23 17-13 3-19 6-14 7 12 1-39 41-53 41-6 0-11-2-11-5zm-654-95c-21-11-42-18-46-15-4 2-17-9-29-25-24-33-16-36 35-17 17 7 44 27 59 45 15 17 25 32 23 32l-42-20z"/><path fill="#dd8900" d="M905 2710a642 642 0 0 1-502-436c-25-81-25-480 0-624 45-261 153-430 327-512 108-52 181-62 430-61 291 1 379 21 500 112 182 137 263 388 262 816 0 187-15 274-68 378a634 634 0 0 1-420 318c-116 32-402 37-529 9z"/><g fill="#eca000"><path d="M1030 2720c0-5 9-10 20-10s20 5 20 10c0 6-9 10-20 10s-20-4-20-10z"/><path d="M1090 2718c0-7-20-34-43-60-34-39-48-48-75-48-17 0-32 4-32 8s16 23 35 42 35 41 35 48c0 18-55 15-144-8-112-28-115-31-75-68 26-24 31-34 22-43-16-16-79-3-105 23-20 20-20 20-74-17a590 590 0 0 1-231-321c-15-50-18-93-17-294 0-250 13-363 54-490a567 567 0 0 1 435-401c101-18 478-16 570 4a518 518 0 0 1 375 294c23 46 59 141 60 160l-18-4c-31-8-66 42-63 90 2 25 15 21 55-18 20-19 36-29 36-22l15 117c8 58 15 131 15 163 0 66-11 72-58 32-17-14-33-25-37-25-15 0 4 83 24 104 26 28 26 38 0 62-21 19-49 76-49 100 0 26 27 14 59-26 17-22 38-40 46-40 9 0 15-9 15-22 0-12 2-19 5-17 9 10-15 188-35 252-18 58-24 67-44 67-13 0-29-7-36-15-19-23-54-15-58 13s33 72 60 72c19 0 19 1 0 28-53 74-232 215-232 183 0-6-6-11-14-11s-28-16-45-35c-22-26-39-35-61-35-41 0-38 16 16 71 45 46 45 46-13 62-124 34-243 47-243 27a697 697 0 0 0 150-142c0-13-59 1-90 21-30 19-92 86-104 112-11 22-86 28-86 7zm594-1465c9-23-22-47-40-32-10 8-11 16-3 30 12 24 35 25 43 2z"/></g><path fill="#fcbd0c" d="M961 2564c-23-24-40-47-36-53 9-15 194-195 203-199 4-1 55 46 112 104 105 106 105 106 66 140-42 36-65 41-211 46-90 4-90 4-134-38zm-106 26c-11-18 26-23 43-6 15 15 14 16-10 16-15 0-30-5-33-10zm-182-41c-34-10-84-35-112-53-28-19-51-30-51-23 0 6-11-4-25-23-25-34-25-34 37-97 34-35 67-63 72-63 11 0 226 211 226 222 0 14-54 57-70 57-8 0-43-9-77-20zm791-20c-4-7 38-56 100-118 107-106 107-106 137-72 31 33 31 33-22 87a463 463 0 0 1-192 114c-9 0-19-5-23-11zm-707-167c-59-59-107-112-107-117 0-20 185-195 206-195 12 0 59 40 124 105 104 106 104 106 9 201-52 53-101 99-110 104-12 7-40-16-122-98zm523 3c-104-104-104-104-66-137 21-18 70-66 109-105 39-40 76-73 82-73 17 0 205 194 205 211 0 16-200 209-217 209-4 0-55-47-113-105zm-868-66c-11-37-24-100-27-140-7-74-7-74 69 1 42 41 76 80 76 87s-19 27-41 45c-23 18-45 42-49 53-6 16-12 6-28-46zm1334-8c-22-24-15-49 21-75 26-19 26-19 19 30-9 61-18 70-40 45zm-733-186c-108-105-108-105 1-210 60-58 113-105 117-105 5 0 57 47 117 104 107 105 107 105 2 210a770 770 0 0 1-117 106c-6 0-60-47-120-105zm546 8c-55-53-99-102-99-109 0-12 197-204 210-204 4 0 35 32 69 70 35 39 69 70 77 70s14 5 14 10c0 6-5 10-10 10-7 0-10 23-8 62 3 61 3 61-63 125-36 34-71 63-79 63-7 0-57-44-111-97zm-1076-6c-56-51-102-99-102-107-1-8 47-60 105-114 106-99 106-99 212 8 107 108 107 108 2 207-58 54-107 99-110 99-3-1-51-42-107-93zm269-245a566 566 0 0 1-102-113c0-9 49-62 109-118 110-102 110-102 210-5 56 53 101 104 101 113 0 14-198 222-210 221-3-1-51-45-108-98zm533-12c-110-110-110-110-10-210 55-55 104-100 110-100s60 49 120 110c110 110 110 110 10 210a824 824 0 0 1-110 100c-6 0-60-49-120-110zm-900-30c8-99 32-260 34-225 0 11 28 47 61 80s60 64 60 70-36 46-81 90c-81 80-81 80-74-15zm1376-5c-23-21-41-45-41-54 0-19 59-81 77-81 14 0 28 149 15 162-7 7-24-3-51-27zm-209-208a934 934 0 0 1-102-112c0-18 197-208 208-201 21 13 71 113 100 199 17 49 32 91 35 94 5 4-125 123-135 123-2 0-49-46-106-103zm-1048 15c-82-77-82-77-59-143 24-71 69-155 109-204 25-30 25-30 148 93s123 123 13 227a858 858 0 0 1-120 104c-5 0-47-35-91-77zm515-28c-104-105-104-105-6-200 55-52 104-94 111-94 6 0 56 45 111 100 99 100 99 100 20 183-44 46-92 90-106 100-25 16-25 16-130-89zm256-238c-116-109-118-88 18-208 71-62 82-69 110-63 82 16 128 28 123 32-3 3 15 26 39 52 25 25 45 53 45 62 0 17-210 219-226 219-5 0-54-43-109-94zm-524-18c-123-120-132-132-105-153 34-27 158-83 199-90 22-3 51-9 64-12 15-4 22-2 18 4-4 5 27 45 68 89 41 43 74 82 75 86 0 11-187 178-200 178-7 0-60-46-119-102zm297-192c-66-64-66-64 23-71 48-4 115-4 147 0 58 7 58 7-8 71-37 35-73 64-81 64-8-1-44-29-81-64z"/><path fill="#fecf3c" d="M457 1563c-25-25 24-168 83-241 39-49 53-56 74-34 14 16 11 23-27 78-23 34-57 93-76 132-34 71-41 79-54 65zm210-321c-10-10-17-23-16-28 1-25 143-106 215-122 34-8 40-7 41 8 1 11-22 30-63 54-36 21-83 53-103 72-44 39-52 41-74 16z"/></svg>