<svg xmlns="http://www.w3.org/2000/svg" width="581" height="600" viewBox="0 0 5810 6000"><path d="M2725 5704c-326-33-589-105-861-239A2517 2517 0 0 1 535 3760c-49-216-60-321-60-575 0-335 30-529 131-835A2496 2496 0 0 1 1864 895c229-112 450-181 711-222 153-24 507-24 660 0a2416 2416 0 0 1 1664 1062c223 334 357 686 417 1100 27 182 25 533-5 724a2554 2554 0 0 1-720 1442 2409 2409 0 0 1-1351 684c-109 16-427 28-515 19z"/><path fill="#418114" d="M2795 5569c-398-14-819-150-1147-370a2464 2464 0 0 1-838-954c-91-199-143-382-190-665-18-104-26-365-18-551 22-538 204-1024 526-1409 392-468 877-730 1519-821 118-16 503-7 613 15 291 58 477 118 675 216a2236 2236 0 0 1 1203 1505c53 219 74 417 74 675-1 591-159 1061-499 1488a2291 2291 0 0 1-1259 807c-246 58-399 73-659 64z"/><g fill="#5ea525"><path d="M2785 5488c-15-46-34-88-42-94-11-10-11-13-1-17 8-3 5-6-7-6-16-1-17-3-5-11 25-16 6-21-116-30-111-9-215-24-256-36-10-3-18-2-18 3 0 14 76 93 83 86 4-3 10 3 13 13 10 27 35 54 45 48 5-3 9 1 9 8 0 8 26 33 57 56 67 49 60 51-79 23-202-42-311-76-305-95 2-6-17-24-42-40-55-34-135-99-216-176-38-36-78-63-110-75-107-38-298-139-400-210-111-78-148-91-82-29 20 19 37 41 37 47-1 18-218-208-286-298-253-333-367-610-444-1075-18-104-26-365-18-551 22-538 204-1024 526-1409 385-460 858-720 1487-816 121-18 453-18 570 1 201 32 232 38 268 56 20 11 37 26 37 34 0 14 12 19 33 16 4 0 7 4 7 9 0 6 7 10 15 10a2139 2139 0 0 1 1061 1165c141 362 205 906 158 1336-19 180-50 353-63 357-5 2-7 10-4 18 7 18-16 104-28 104-5 0-6 7-3 15 4 8 2 15-4 15-5 0-7 11-5 23 3 13-2 30-9 38-8 8-13 20-10 27 2 6-1 12-7 12s-8 7-5 15c4 8 1 15-6 15-6 0-8 5-5 10 8 13-14 80-26 80-5 0-9 10-9 23 0 41-66 183-123 268-32 46-88 123-125 170-37 48-96 138-131 200s-98 157-139 211a1737 1737 0 0 1-394 372l-108 66c-42 28-382 98-355 73l75-60c84-66 119-104 102-110-18-7 4-33 28-33 9 0 25-9 36-21 15-16 16-22 5-28-19-12-3-33 21-29 12 2 23-3 25-9 3-7 0-13-6-13s-11-5-11-11 9-9 20-6c14 3 24-1 31-15 10-19 9-20-12-15-13 3-70 21-127 41-56 20-153 46-215 58-112 22-112 22-152 147-41 126-41 126-126 129s-85 3-114-80zm1812-1490c-2-13-4-5-4 17-1 22 1 32 4 23 2-10 2-28 0-40zm-3530-765c-2-16-4-3-4 27s2 43 4 28c2-16 2-40 0-55z"/><path d="M1400 5005c-7-9-11-18-8-20 3-3 11 1 18 10s11 18 8 20c-3 3-11-1-18-10z"/></g><g fill="#81c33b"><path d="M2771 5443c-23-70-41-134-41-140 0-7-5-13-11-13-5 0-8-4-5-9 8-12-15-111-25-111-5 0-6-7-3-15 4-8 2-15-2-15-5 0-9-16-10-36 0-20-6-39-14-44-7-4-10-12-6-18 8-13-9-93-22-101-5-3-9-21-9-39 0-19-6-38-14-43s-9-9-3-9c8 0 5-23-8-67-11-38-25-89-30-115-6-27-13-48-17-48-3 0-8-66-9-148-2-81-6-150-9-154-2-5 1-8 7-8 8 0 10-13 5-40-5-28-3-40 5-40s11-10 8-25c-3-14-1-25 3-25 5 0 9-11 9-25s-6-25-12-25c-10 0-10-2 0-9 11-7 11-9-2-14-17-7-22-57-6-57 6 0 10-16 10-35s-5-35-11-35-8-8-4-19c3-11 2-22-3-25s-7-17-4-31c3-19 0-25-14-25-15 0-16-2-5-9s11-17-4-60c-9-28-21-51-26-51-6 0-7-4-4-10 11-17-27-120-44-121-11 0-12-2-3-6 13-5 17-43 5-43-5 0-8-47-8-105s3-105 7-105 12-25 18-56c10-46 9-58-2-65-10-7-9-9 5-9 20 0 24-36 5-43-8-3-5-6 6-6 14-1 17-7 14-26-3-14-1-25 4-25 6 0 8-7 4-15-3-8-1-15 3-15 13 0 25-81 13-89-11-7-12-151-1-151 17 0 9-20-8-21-11 0-13-3-5-6 19-7 15-43-5-43-13 0-14-3-5-8 13-9 6-72-8-72-5 0-6-9-3-20 4-13-1-26-13-35-11-8-14-14-6-15 13 0 18-30 5-30-5 0-8-38-8-85s4-85 9-85c4 0 6-11 4-25-3-14-1-25 3-25 14 0 10-48-3-53-8-3-5-6 6-6 13-1 17-6 13-21-3-10 0-22 7-25 8-3 8-7-1-11-18-8-16-24 1-24 16 0 31-34 21-50-3-5-1-10 6-10 6 0 9-8 6-20-3-11-1-20 5-20s8-11 6-25c-3-14-1-25 4-25 6 0 7-8 4-17-4-9-1-20 6-24 8-5 13-29 13-59 0-27 3-50 8-50 13 0 8-40-5-40-7 0-4-7 7-16 17-13 18-16 5-24-10-7-11-10-2-10 6 0 12-11 12-25s-4-25-10-25c-5 0-10-4-10-10 0-5 7-10 16-10 14 0 16-7 11-40-3-22-1-40 4-40s9-7 9-15-4-15-10-15c-5 0-10-11-10-25 0-16 6-25 15-25 18 0 20-36 3-43-8-3-6-6 5-6 18-1 24-35 7-46-15-9-12-25 5-25 8 0 15-7 15-15s-4-15-10-15c-5 0-10-7-10-15s7-15 15-15c18 0 20-36 3-43-8-3-6-6 5-6 18-1 25-21 7-21-5 0-10-7-10-16 0-10 6-14 15-10 18 6 21-19 3-30-7-5-5-11 8-21 16-12 17-15 4-23s-12-10 3-10c20 0 23-16 5-24-9-3-7-10 7-22 14-11 16-18 8-21-18-7-16-23 3-23 10 0 14-6 11-14s-1-17 6-20c9-3 8-8-3-15-13-9-12-11 4-11 13 0 17-5 13-20-3-10 0-21 7-24 8-3 7-7-3-14-11-8-10-12 5-21 11-6 13-11 7-11-19 0-16-20 3-20 10 0 14-6 10-15-3-8-1-15 5-15s9-6 6-14 1-17 10-20c9-4 13-14 10-26-3-10 0-21 7-24s6-8-4-15c-13-9-13-11 3-11 23 0 42-47 26-66-8-10-3-14 23-19 18-4 53-5 77-3 44 3 44 3 73 78a4201 4201 0 0 1 224 974c20 157 40 256 89 441 36 138 37 142 31 280-3 91-11 159-22 195-35 111-18 367 38 580 7 25 12 86 12 135-1 92-12 140-73 340-27 90-39 147-58 268-3 20 2 94 12 163 29 205 20 286-65 624-73 295-131 504-173 625-24 70-24 70-109 73-86 3-86 3-127-125z"/><path d="M2436 5524c-128-27-204-52-228-74a1518 1518 0 0 1-407-346c-118-138-131-153-131-158 0-3-22-40-48-83l-67-115c-11-21-23-38-27-38-5 0-8-8-8-18 0-9-11-29-24-43s-31-40-40-57c-9-18-21-32-26-32-6 0-10-7-10-15 0-9-7-18-15-21-8-4-15-12-15-19s-4-15-9-17a842 842 0 0 1-166-345c-3-23-13-44-21-47-16-6-20-56-4-56 6 0 10-47 10-120 0-107-2-120-17-121-11 0-13-3-5-6 6-2 12-17 12-31 0-36-41-172-51-172-5 0-9-8-9-18 0-35-32-112-46-112-8 0-14-4-14-10 0-5 5-10 10-10 18 0 11-30-7-31-11 0-13-3-6-6 19-7 17-63-2-63-8 0-15-4-15-10 0-5 5-10 10-10 6 0 10-30 10-70s-4-70-10-70c-5 0-10-4-10-10 0-5 7-10 15-10 19 0 21-66 3-73-8-3-6-6 5-6 19-1 24-31 5-31-7 0-4-7 7-16 17-13 18-16 5-24s-13-10 2-10c19 0 37-42 19-48-16-5-14-22 3-22 20 0 32-40 15-51-11-7-10-9 5-9 13 0 17-5 13-20-3-10 0-21 6-23s11-21 11-43c1-21 6-42 11-46 7-5 6-14-3-28-10-17-10-20 3-20 9 0 15-9 15-25 0-14-4-25-10-25-5 0-10-7-10-15s7-15 15-15c12 0 15-16 15-80 0-47-4-80-10-80-15 0-12-17 6-35 10-10 17-34 18-61 0-24 5-44 10-44 4 0 6-7 2-15-3-8-1-15 3-15 15 0 22-32 11-45-8-9-5-14 11-18s20-11 16-26c-3-12 0-21 6-21s7-3 4-7c-4-3 1-12 11-19 15-12 15-15 2-24-12-8-11-10 7-10 24 0 41-39 27-61-5-9-2-10 9-6 19 7 62-46 52-63-3-5 1-10 9-10 22 0 38-34 23-49-9-10-8-12 8-9 13 2 28-6 43-27 43-55 94-150 94-172 0-12 7-24 15-27 8-4 13-13 10-20-3-8 1-17 9-20 16-6 19-36 4-36-5 0-10-4-10-10 0-5 8-10 18-10 14 0 15-2 2-10-12-8-12-10 5-10s17-2 5-10-12-10 5-10 17-2 5-10-12-10 5-10 17-2 5-10-12-10 5-10 17-2 5-10-11-10 8-10c21 0 26-9 23-37-1-7 5-13 12-13 8 0 17-6 20-13 2-6 26-39 52-72 30-37 37-49 19-32-17 15-34 27-40 27-5 0-63 54-129 120s-125 120-132 120-13 6-13 14c0 7-24 36-54 64-29 28-52 53-50 55 3 2-11 18-30 35-19 16-33 32-30 34 2 3-13 23-33 45l-38 44c-1 8-68 104-79 114a4498 4498 0 0 0-258 533c-5 2-8 15-8 28 0 14-7 40-15 60-8 19-14 38-14 42-1 24-14 102-22 127-5 17-11 51-13 75-13 134-53 188-104 137-18-18-26-41-32-93-9-71-3-194 10-194 4 0 5-11 2-25-2-14 0-25 6-25 5 0 9-19 8-42 0-23 4-43 11-45 6-2 9-13 6-23-3-11-1-20 3-20 5 0 10-14 10-32 1-18 6-34 12-36s8-10 5-18 0-14 6-14 8-7 5-15c-4-8-1-15 5-15s8-7 5-15c-4-8-1-15 5-15s8-7 5-15c-4-8-1-15 6-15 6 0 8-4 5-10-3-5-2-10 4-10s8-7 5-15c-4-8-1-15 6-15 6 0 9-4 5-9-7-12 15-61 27-61 5 0 6-4 3-10-3-5-2-10 4-10s8-6 5-14c-3-7 2-20 10-29 8-8 12-17 9-21-4-3-1-6 6-6s9-4 6-10c-3-5-1-10 5-10s9-4 5-9c-3-5 1-16 9-24s12-17 9-21c-4-3-1-6 6-6s10-4 6-10c-3-5 3-18 14-29s17-22 14-25c-4-3-2-6 4-6 5 0 10-6 10-14 0-21 101-173 119-180 9-3 13-10 10-15-3-4 11-26 32-47a1586 1586 0 0 1 294-304c10 0 17-4 14-9-8-12 66-71 88-71 9 0 15-5 13-12-3-15 209-158 235-158 10 0 16-5 13-10-4-6 7-13 24-16 17-4 29-10 26-14-6-9 56-40 80-40 9 0 13-5 10-10-4-6 7-13 25-16 17-4 28-9 26-12-3-3 16-15 42-28 67-33 103-30 70 5-7 8-1 6 15-4 15-9 27-24 27-31 0-8 9-14 19-14 11 0 43-16 73-35 29-19 60-38 69-40 9-3 19-15 22-27 5-16 12-20 36-16 16 2 28 1 25-4-7-11 6-15 129-36 118-20 134-14 65 28-41 24-167 145-217 206l-68 99c-24 39-54 83-66 100-25 36-204 387-236 465-37 88-131 360-146 420l-29 110c-9 30-20 80-26 110a4424 4424 0 0 0-3 1648c12 118 111 457 193 662 145 364 356 678 558 831 60 45 63 49 36 48-16 0-78-11-138-25zm769 19 77-62c109-85 293-306 281-337-3-9 1-14 12-14s15-5 11-15c-3-9 0-15 8-15 24 0 234-410 220-431-3-6 1-16 9-22 17-13 62-135 53-144-3-3 2-12 10-20 8-9 12-23 9-34-4-10-2-19 4-19 11 0 34-65 29-82-3-7 2-19 10-27 7-8 12-25 9-38-2-12 0-23 5-23 6 0 8-6 5-14s-1-16 5-18 12-21 12-41c1-20 4-37 8-37 9 0 31-108 24-125-3-8 0-15 7-18 6-2 12-24 12-50s4-47 9-47 6-18 2-40c-4-27-3-40 5-40 7 0 9-10 7-25-3-14-1-25 5-25s8-19 5-45-1-45 4-45c6 0 8-13 6-30-3-16-1-30 4-30 14 0 10-120-4-120-8-1-6-6 5-14 14-11 17-30 17-129 0-83-4-117-12-120-10-4-10-6 0-6 9-1 12-42 12-171 0-93-3-170-7-170-5 0-6-27-5-60 2-33 0-60-5-60-4 0-9-35-11-78-2-42-7-78-11-80-4-1-6-14-3-27 3-16 0-25-8-25s-10-8-6-22c7-30-13-148-26-148-6 0-8-7-4-15 6-17-14-115-23-115-3 0-7-11-7-25-4-57-37-155-53-155-13 0-13-2-2-9 8-5 9-11 3-15-6-3-8-14-5-25 2-10-1-24-9-32-7-8-15-25-16-39-2-14-8-27-13-28a494 494 0 0 0-52-147c-6-11-13-31-15-44-2-14-9-36-16-50l-46-96a2140 2140 0 0 0-200-369 543 543 0 0 0-100-136c0-35-187-212-275-260-41-23-75-43-75-45s16 1 34 5c19 4 37 5 40 2 3-2 12 0 19 7 8 6 22 9 30 5 40-15 272 84 384 164 18 13 38 20 44 16 7-4 9-3 6 3-4 6 15 25 41 44 136 97 292 260 389 404 22 33 79 139 126 235 57 116 105 199 142 245 167 207 245 407 245 631 0 116 25 250 73 394 42 125 42 125 42 285 0 169-5 202-55 330-46 118-60 199-68 388-4 97-4 177 1 177 4 0 7 7 7 15s-4 15-10 15c-5 0-10 10-10 23 0 41-66 183-123 268-32 46-88 123-125 170-37 48-96 138-131 200s-98 157-139 211a1737 1737 0 0 1-394 372l-108 66c-42 28-382 98-355 73z"/></g><g fill="#9fdb60"><path d="M2771 5443c-22-70-59-202-81-293l-50-200c-104-389-117-489-87-677 22-142 4-349-44-478-72-198-86-331-50-481 60-250 63-269 58-381-3-67-14-150-31-218-40-169-34-236 44-535 32-121 52-238 70-405 30-266 101-590 178-805 69-194 60-180 117-180 58 0 75 9 78 38 1 12 5 22 10 22s7 6 4 14-2 16 3 18c4 2 10 12 12 23 1 11 7 23 11 26 5 4 10 18 10 33 1 14 6 26 11 26 4 0 6 7 2 15-3 8-1 15 4 15 9 0 26 67 21 84-1 5 3 12 9 16s12 21 13 38c1 18 6 32 11 32 4 0 6 7 2 15-3 8 0 15 5 15 7 0 9 11 7 25-3 14-1 25 4 25 4 0 6 11 4 24-2 14 0 26 6 28 5 2 10 23 11 46s6 42 10 42c5 0 5 10 2 21-4 13-2 25 5 29 6 4 12 30 13 58 1 29 6 52 11 52 4 0 6 13 4 30-3 16 0 30 5 30s7 13 5 30c-3 16-1 30 4 30s7 18 4 40c-2 24 0 40 6 40s8 15 6 35c-2 19 0 35 5 35s7 18 5 40 0 40 5 40 7 16 5 35-1 35 3 35c10 0 29 118 22 135-3 8 0 15 7 15s10 7 6 15c-3 8 0 15 5 15 6 0 9 9 6 20s-1 20 5 20 8 9 5 20c-3 10-1 20 4 22s11 17 12 33c1 17 6 33 10 36 5 4 10 25 10 48 1 22 5 41 10 41 10 0 8 224-2 279-5 24-13 46-17 50-5 3-10 26-11 50s-6 47-11 50c-10 7-8 189 3 214 4 10 8 38 9 63 0 24 5 44 10 44 4 0 6 9 3 20s-2 20 2 20c11 0 34 137 35 203 0 31 3 57 8 57 4 0 8 9 8 20s-4 20-9 20-6 20-3 45c3 29 1 45-6 45-6 0-9 7-6 15 4 8 1 15-5 15s-8 7-5 15c7 17-25 125-37 125-5 0-6 7-3 15 4 8 1 15-5 15s-8 7-5 15c4 8 2 15-2 15-5 0-9 16-10 36 0 20-5 39-10 42-5 4-10 27-12 52s-7 46-12 48c-6 2-7 15-4 28s2 24-2 24c-5 0-9 29-9 65s4 65 9 65c4 0 6 13 4 30-2 16 0 31 5 33 14 4 15 349 0 354-7 2-9 11-6 19s0 14-6 14-8 7-5 15c7 18-15 115-26 115-4 0-6 9-3 20s1 20-5 20-8 9-5 20c3 12 0 20-6 20-7 0-10 4-7 9 8 12-15 121-25 121-5 0-6 7-3 15 4 8 2 15-2 15-5 0-9 17-10 37 0 20-5 38-11 40s-9 13-6 23c3 11 1 20-4 20-6 0-8 11-6 24 3 13-2 29-9 37-8 7-13 23-10 35 2 12-3 27-10 35-8 7-13 22-11 33 2 12-16 80-40 151-43 130-43 130-129 133s-86 3-127-125z"/><path d="M2435 5524c-122-26-195-51-195-65 0-6-4-8-9-5-5 4-11 3-13-1-1-5-29-21-60-36-176-88-447-384-588-642-59-108-139-228-179-271-10-12-41-57-68-100a759 759 0 0 1-123-452c0-172-12-238-66-387a798 798 0 0 1-56-408c6-56 20-129 32-161 49-142 80-303 89-458 16-257 57-364 235-607 87-119 105-150 181-315a950 950 0 0 1 234-348c172-179 338-310 479-376 35-17 64-34 65-39 1-4 6-7 11-5 4 1 25-3 45-9 62-21 171-37 171-25-1 11-101 78-133 89-9 4-21 17-26 29-11 30-74 98-90 98-7 0-9 5-6 11 4 5-9 25-28 44s-32 36-29 39c2 3-2 8-11 12-9 3-13 12-10 20s-1 14-11 14-13 6-10 15c4 10 0 15-11 15-9 0-13 5-10 11 8 11-42 89-57 89-5 0-7 4-4 9 9 14-5 41-21 41-8 0-11 4-8 10 3 5 2 10-3 10-6 0-8 9-5 20 3 13 0 20-9 20-7 0-15 10-15 22-1 13-9 28-17 34-9 6-13 14-9 17 3 4 1 7-6 7s-9 4-6 10c3 5 1 10-5 10s-8 5-5 10c3 6 1 10-5 10s-8 5-5 10c3 6 1 10-5 10s-8 5-5 10 1 10-5 10-8 4-5 10c3 5 2 10-3 10-6 0-8 9-5 20 4 14 0 20-11 20-9 0-13 6-10 14 3 7-2 20-10 29-8 8-12 17-9 21 4 3 1 6-5 6s-9 7-6 15c4 8 1 15-6 15-6 0-9 4-6 9 7 11-24 91-36 91-5 0-6 5-3 10 3 6 2 10-3 10-6 0-8 8-5 19 2 10-2 24-10 32-7 8-12 20-9 27 2 6-1 12-7 12s-8 7-5 15c4 8 1 15-6 15-6 0-8 5-5 10 3 6 1 10-5 10-7 0-9 8-5 20s2 20-5 20c-6 0-9 4-5 9 7 12-26 131-36 131-5 0-6 7-3 15 4 8 2 15-2 15-5 0-9 16-10 36 0 20-5 39-10 42-5 4-10 27-11 52-2 25-7 46-12 48s-7 12-4 22c3 12 0 20-7 20-9 0-10 10-6 35 4 19 3 35-2 35-4 0-6 16-4 35s0 35-6 35c-5 0-7 11-4 25 2 14 0 25-5 25s-8 20-6 45 0 45-5 45-7 14-4 30c3 19 0 30-7 30-9 0-10 23-5 85 4 48 3 85-2 85s-9 119-9 270c0 149 4 270 9 270s6 18 3 40c-3 24-1 41 7 44 7 3 7 5-1 5-15 1-18 38-3 43 5 2 10 39 12 83s7 83 11 86c5 3 9 32 10 63 1 30 6 56 11 56 4 0 5 15 2 34-4 20-2 37 4 41 6 3 7 11 4 17-4 6-1 13 5 17s12 28 13 54 5 47 8 47c4 0 15 37 25 83 10 45 26 108 36 141 11 32 16 62 13 67s0 9 6 9c7 0 10 6 7 14s-2 16 3 18c6 2 11 15 12 31 1 15 5 27 8 27 7 0 45 123 41 129-2 2 1 7 6 10s21 36 36 74c65 163 191 396 280 515 81 110 192 227 265 283 60 45 63 49 36 48-16 0-78-11-139-25zm770 19c6-5 41-34 79-63 171-134 374-430 506-740l47-108a3876 3876 0 0 0 212-812l23-150c18-106 18-803 0-925-49-339-109-602-168-743a3016 3016 0 0 0-154-397 2205 2205 0 0 0-354-577 769 769 0 0 0-196-176l-68-47c-2-2 10-3 27-3 18 1 34 5 37 10s14 6 24 3c42-13 207 53 343 137 43 26 84 45 89 42 6-4 8-3 5 3-4 6 15 25 41 44a1773 1773 0 0 1 333 329 1053 1053 0 0 1 170 300c3 3 27 46 53 96s74 124 106 163a1390 1390 0 0 1 161 261c15 13 53 129 54 162 0 21 4 38 9 38 4 0 6 13 4 30-2 16-1 31 3 32 4 2 9 65 11 140a507 507 0 0 0 16 163c-3 14-1 25 3 25 5 0 9 11 9 24s7 43 15 66 12 46 9 51-1 9 3 9c13 0 53 131 49 163a541 541 0 0 1 9 137c0 61-3 110-6 110s-4 13-1 30c5 37-27 160-44 167-7 2-10 11-7 19s0 14-6 14-8 6-5 14-1 20-9 27-12 21-9 31c2 10-1 18-7 18-5 0-8 7-5 15 4 8 2 15-2 15-5 0-10 39-12 88-2 48-6 88-10 89-4 2-5 59-3 128 2 80-1 125-7 125s-8 16-5 38c11 81-76 247-245 463-37 48-96 138-131 200-89 155-192 288-322 413-135 131-296 239-341 228-11-2-18 2-18 12 0 9-4 17-10 17l-17 3-98 24c-109 26-204 38-190 25z"/></g></svg>